<?xml version="1.0" standalone="no"?><!DOCTYPE svg PUBLIC "-//W3C//DTD SVG 1.1//EN" "http://www.w3.org/Graphics/SVG/1.1/DTD/svg11.dtd"><svg class="icon" width="800px" height="743.38px" viewBox="0 0 1102 1024" version="1.1" xmlns="http://www.w3.org/2000/svg"><path fill="#0dfcff" d="M1101.177562 254.835169v601.270734a255.618762 255.618762 0 0 1-1.941276 49.84356 141.791811 141.791811 0 0 1-48.059685 83.684714 155.45944 155.45944 0 0 1-65.216363 30.955474 348.668819 348.668819 0 0 1-64.927795 2.098676h-745.030055a301.684705 301.684705 0 0 1-66.869071-3.410348 141.004808 141.004808 0 0 1-100.290489-89.456074 227.732602 227.732602 0 0 1-8.289771-78.700358V189.251538q0-29.906136 0.262334-59.812272a160.47003 160.47003 0 0 1 16.579543-55.090251A146.330199 146.330199 0 0 1 94.206483 8.765384 161.361967 161.361967 0 0 1 120.728503 2.20702l13.82503-1.574007h787.895516a330.226702 330.226702 0 0 1 58.553066 1.574007 152.57376 152.57376 0 0 1 66.055834 28.332129 142.972317 142.972317 0 0 1 51.391334 82.635376 245.125381 245.125381 0 0 1 2.623345 53.778578v87.882066zM1020.483461 126.81592a64.035858 64.035858 0 0 0-22.928037-34.628157c-19.727556-14.428399-41.134054-12.854392-74.870274-12.854392H138.93452l-5.797594 0.787004c-4.590854 1.049338-9.207942 2.361011-13.798796 3.410348a64.42936 64.42936 0 0 0-31.244042 26.233453 115.637059 115.637059 0 0 0-8.840673 60.336941v671.051718a234.868101 234.868101 0 0 0 1.941275 56.139589 63.327555 63.327555 0 0 0 41.973524 44.0722 181.404325 181.404325 0 0 0 45.856076 2.623346h756.126805a240.796862 240.796862 0 0 0 48.085918-1.311673 74.555472 74.555472 0 0 0 29.538868-15.740072c20.068591-16.264741 19.622623-43.022862 19.622622-79.225027V170.363452a186.257514 186.257514 0 0 0-1.915042-43.547532z m-75.840911 687.841128a28.856798 28.856798 0 0 1-8.840674 20.724428 31.322742 31.322742 0 0 1-42.681827 0l-41.055353-39.874848-41.055354 39.874848a31.086641 31.086641 0 0 1-42.62936 0 28.410829 28.410829 0 0 1 0-41.186521l41.055353-39.874848-41.055353-39.612513a28.620697 28.620697 0 0 1 1.206739-40.137183 31.191575 31.191575 0 0 1 41.422621-1.049338l41.055354 39.612513 41.055353-39.612513a31.086641 31.086641 0 0 1 42.62936 0 28.410829 28.410829 0 0 1 0 41.186521l-41.055353 39.612513 41.10782 39.874848a28.122261 28.122261 0 0 1 8.840674 20.462093zM790.940751 533.172101a36.726834 36.726834 0 0 1-21.27533-4.197352c-26.44332-13.641395-19.884957-46.433211-19.884957-84.734052V349.013264a203.151857 203.151857 0 0 1 4.695788-73.191333 37.881106 37.881106 0 0 1 20.724427-17.051744l8.840674-1.574007a36.438266 36.438266 0 0 1 38.956677 30.430805c0 16.527075 0.183634 33.05415 0.262335 49.84356v112.016843c0 43.547531 5.902527 77.126351-32.319614 83.684713z m-127.284712 256.825502H506.832459a29.145366 29.145366 0 1 1 0-58.238265h156.82358a29.145366 29.145366 0 1 1 0 58.238265z m-76.077013-537.785779v248.168462a36.989168 36.989168 0 0 1-72.404329 6.033694 125.264736 125.264736 0 0 1-1.101805-30.69314V203.155267a98.585315 98.585315 0 0 1 3.043081-34.365822 37.828639 37.828639 0 0 1 20.173525-19.150421c2.938147-0.787004 5.876293-1.311673 8.840673-2.098676a36.726834 36.726834 0 0 1 40.897953 29.119132 146.907335 146.907335 0 0 1 0.550902 29.119133v46.433211z m-242.738137 537.785779h-48.269553v46.695545a30.168471 30.168471 0 0 1-60.336941 0v-46.695545H188.09601a29.145366 29.145366 0 1 1 0-58.238265h48.217086v-46.695546a30.194704 30.194704 0 0 1 60.336941 0v46.695546h48.217086a29.145366 29.145366 0 1 1 0 58.238265z m7.056799-346.54391v11.280385c0 41.973524 4.092419 72.141995-32.608182 78.438023a34.864259 34.864259 0 0 1-21.27533-4.197352c-24.370877-12.592057-19.884957-39.087844-19.884957-75.027674v-29.119133a160.024061 160.024061 0 0 1 3.305415-52.204571 36.910468 36.910468 0 0 1 20.173525-18.625751l8.840674-2.361011a37.907339 37.907339 0 0 1 36.464499 18.101083 166.923459 166.923459 0 0 1 4.984356 68.99398v4.722021z" /></svg>